<mxfile host="app.diagrams.net" modified="2021-06-12T15:52:50.875Z" agent="5.0 (Macintosh; Intel Mac OS X 10_15_7) AppleWebKit/537.36 (KHTML, like Gecko) Chrome/91.0.4472.77 Safari/537.36" etag="omglSc0pZWxUadbZMI40" version="14.7.7" type="github">
  <diagram id="1IO76orpQAjkRUR4WzMw" name="第 1 页">
    <mxGraphModel dx="946" dy="1655" grid="1" gridSize="10" guides="1" tooltips="1" connect="1" arrows="1" fold="1" page="1" pageScale="1" pageWidth="827" pageHeight="1169" math="0" shadow="0">
      <root>
        <mxCell id="0" />
        <mxCell id="1" parent="0" />
        <mxCell id="l93t8x1f4jSvo3v5c8Gw-3" value="" style="edgeStyle=orthogonalEdgeStyle;rounded=0;orthogonalLoop=1;jettySize=auto;html=1;" parent="1" source="l93t8x1f4jSvo3v5c8Gw-1" target="l93t8x1f4jSvo3v5c8Gw-2" edge="1">
          <mxGeometry relative="1" as="geometry" />
        </mxCell>
        <mxCell id="DoyHdh-UK0iGsPLy9ccF-2" style="edgeStyle=orthogonalEdgeStyle;rounded=0;orthogonalLoop=1;jettySize=auto;html=1;" edge="1" parent="1" source="l93t8x1f4jSvo3v5c8Gw-1" target="DoyHdh-UK0iGsPLy9ccF-1">
          <mxGeometry relative="1" as="geometry" />
        </mxCell>
        <mxCell id="l93t8x1f4jSvo3v5c8Gw-1" value="我觉得还是可以的" style="rhombus;whiteSpace=wrap;html=1;" parent="1" vertex="1">
          <mxGeometry x="370" y="220" width="160" height="50" as="geometry" />
        </mxCell>
        <mxCell id="l93t8x1f4jSvo3v5c8Gw-2" value="还可以" style="whiteSpace=wrap;html=1;" parent="1" vertex="1">
          <mxGeometry x="120" y="350" width="120" height="60" as="geometry" />
        </mxCell>
        <mxCell id="l93t8x1f4jSvo3v5c8Gw-4" value="还不错" style="whiteSpace=wrap;html=1;" parent="1" vertex="1">
          <mxGeometry x="390" y="-120" width="120" height="60" as="geometry" />
        </mxCell>
        <mxCell id="DoyHdh-UK0iGsPLy9ccF-1" value="" style="ellipse;whiteSpace=wrap;html=1;" vertex="1" parent="1">
          <mxGeometry x="840" y="340" width="120" height="80" as="geometry" />
        </mxCell>
      </root>
    </mxGraphModel>
  </diagram>
</mxfile>
